<mxfile host="Electron" modified="2024-01-28T15:13:12.957Z" agent="Mozilla/5.0 (Windows NT 10.0; Win64; x64) AppleWebKit/537.36 (KHTML, like Gecko) draw.io/22.1.16 Chrome/120.0.6099.109 Electron/28.1.0 Safari/537.36" etag="o5K95QkjUxZDwIPHb8cz" version="22.1.16" type="device">
  <diagram name="Страница — 1" id="R87gwawpsRX5DZW33Yvw">
    <mxGraphModel dx="1480" dy="-292" grid="1" gridSize="10" guides="1" tooltips="1" connect="1" arrows="1" fold="1" page="1" pageScale="1" pageWidth="827" pageHeight="1169" math="0" shadow="0">
      <root>
        <mxCell id="0" />
        <mxCell id="1" parent="0" />
        <mxCell id="I8_YqKPrPAklGVPkxECB-31" value="" style="group" vertex="1" connectable="0" parent="1">
          <mxGeometry x="760" y="1220" width="880" height="930" as="geometry" />
        </mxCell>
        <mxCell id="I8_YqKPrPAklGVPkxECB-32" value="Алгоритм наложения Дотов" style="swimlane;whiteSpace=wrap;html=1;fillColor=#f8cecc;strokeColor=#b85450;container=0;" vertex="1" parent="I8_YqKPrPAklGVPkxECB-31">
          <mxGeometry width="880" height="930" as="geometry" />
        </mxCell>
        <mxCell id="I8_YqKPrPAklGVPkxECB-33" value="Кол-во эл-та МНД += Кол-во эл-та МД" style="rounded=0;whiteSpace=wrap;html=1;container=0;" vertex="1" parent="I8_YqKPrPAklGVPkxECB-31">
          <mxGeometry x="260.2307692307686" y="490" width="120" height="60" as="geometry" />
        </mxCell>
        <mxCell id="I8_YqKPrPAklGVPkxECB-34" style="edgeStyle=orthogonalEdgeStyle;rounded=0;orthogonalLoop=1;jettySize=auto;html=1;exitX=0.5;exitY=1;exitDx=0;exitDy=0;" edge="1" parent="I8_YqKPrPAklGVPkxECB-31" source="I8_YqKPrPAklGVPkxECB-54" target="I8_YqKPrPAklGVPkxECB-33">
          <mxGeometry relative="1" as="geometry">
            <mxPoint x="320.2307692307686" y="520" as="targetPoint" />
          </mxGeometry>
        </mxCell>
        <mxCell id="I8_YqKPrPAklGVPkxECB-35" value="Да" style="edgeLabel;html=1;align=center;verticalAlign=middle;resizable=0;points=[];container=0;" vertex="1" connectable="0" parent="I8_YqKPrPAklGVPkxECB-34">
          <mxGeometry x="-0.313" y="-3" relative="1" as="geometry">
            <mxPoint x="-1" y="3" as="offset" />
          </mxGeometry>
        </mxCell>
        <mxCell id="I8_YqKPrPAklGVPkxECB-36" value="Массив ДОТов&lt;br&gt;(МД)" style="shape=parallelogram;perimeter=parallelogramPerimeter;whiteSpace=wrap;html=1;fixedSize=1;container=0;" vertex="1" parent="I8_YqKPrPAklGVPkxECB-31">
          <mxGeometry x="120" y="40" width="120" height="60" as="geometry" />
        </mxCell>
        <mxCell id="I8_YqKPrPAklGVPkxECB-37" style="edgeStyle=orthogonalEdgeStyle;rounded=0;orthogonalLoop=1;jettySize=auto;html=1;exitX=1;exitY=0.5;exitDx=0;exitDy=0;entryX=0;entryY=0.5;entryDx=0;entryDy=0;" edge="1" parent="I8_YqKPrPAklGVPkxECB-31" source="I8_YqKPrPAklGVPkxECB-38" target="I8_YqKPrPAklGVPkxECB-36">
          <mxGeometry relative="1" as="geometry" />
        </mxCell>
        <mxCell id="I8_YqKPrPAklGVPkxECB-38" value="Алгоритм разделения массива инвентаря для атаки" style="ellipse;whiteSpace=wrap;html=1;aspect=fixed;container=0;" vertex="1" parent="I8_YqKPrPAklGVPkxECB-31">
          <mxGeometry x="10" y="23" width="94" height="94" as="geometry" />
        </mxCell>
        <mxCell id="I8_YqKPrPAklGVPkxECB-39" value="Тот, кто получает урон" style="shape=parallelogram;perimeter=parallelogramPerimeter;whiteSpace=wrap;html=1;fixedSize=1;container=0;" vertex="1" parent="I8_YqKPrPAklGVPkxECB-31">
          <mxGeometry x="610" y="40" width="120" height="60" as="geometry" />
        </mxCell>
        <mxCell id="I8_YqKPrPAklGVPkxECB-40" value="Наложенные ДОТы&lt;br&gt;&amp;nbsp;(МНД)" style="shape=parallelogram;perimeter=parallelogramPerimeter;whiteSpace=wrap;html=1;fixedSize=1;container=0;" vertex="1" parent="I8_YqKPrPAklGVPkxECB-31">
          <mxGeometry x="420" y="40" width="160" height="60" as="geometry" />
        </mxCell>
        <mxCell id="I8_YqKPrPAklGVPkxECB-41" style="edgeStyle=orthogonalEdgeStyle;rounded=0;orthogonalLoop=1;jettySize=auto;html=1;exitX=1;exitY=0.5;exitDx=0;exitDy=0;entryX=0.75;entryY=1;entryDx=0;entryDy=0;" edge="1" parent="I8_YqKPrPAklGVPkxECB-31" source="I8_YqKPrPAklGVPkxECB-33" target="I8_YqKPrPAklGVPkxECB-40">
          <mxGeometry relative="1" as="geometry" />
        </mxCell>
        <mxCell id="I8_YqKPrPAklGVPkxECB-42" style="edgeStyle=orthogonalEdgeStyle;rounded=0;orthogonalLoop=1;jettySize=auto;html=1;exitX=0;exitY=0.5;exitDx=0;exitDy=0;" edge="1" parent="I8_YqKPrPAklGVPkxECB-31" source="I8_YqKPrPAklGVPkxECB-39" target="I8_YqKPrPAklGVPkxECB-40">
          <mxGeometry relative="1" as="geometry" />
        </mxCell>
        <mxCell id="I8_YqKPrPAklGVPkxECB-43" value="Получить массив актуальных дотов&amp;nbsp;" style="rounded=0;whiteSpace=wrap;html=1;container=0;" vertex="1" parent="I8_YqKPrPAklGVPkxECB-31">
          <mxGeometry x="260" y="40" width="120" height="60" as="geometry" />
        </mxCell>
        <mxCell id="I8_YqKPrPAklGVPkxECB-44" style="edgeStyle=orthogonalEdgeStyle;rounded=0;orthogonalLoop=1;jettySize=auto;html=1;exitX=1;exitY=0.5;exitDx=0;exitDy=0;entryX=0;entryY=0.5;entryDx=0;entryDy=0;" edge="1" parent="I8_YqKPrPAklGVPkxECB-31" source="I8_YqKPrPAklGVPkxECB-36" target="I8_YqKPrPAklGVPkxECB-43">
          <mxGeometry relative="1" as="geometry" />
        </mxCell>
        <mxCell id="I8_YqKPrPAklGVPkxECB-45" style="edgeStyle=orthogonalEdgeStyle;rounded=0;orthogonalLoop=1;jettySize=auto;html=1;exitX=0;exitY=0.5;exitDx=0;exitDy=0;entryX=1;entryY=0.5;entryDx=0;entryDy=0;" edge="1" parent="I8_YqKPrPAklGVPkxECB-31" source="I8_YqKPrPAklGVPkxECB-40" target="I8_YqKPrPAklGVPkxECB-43">
          <mxGeometry relative="1" as="geometry" />
        </mxCell>
        <mxCell id="I8_YqKPrPAklGVPkxECB-46" value="Int i = 0&lt;br&gt;&amp;nbsp;" style="rounded=0;whiteSpace=wrap;html=1;container=0;" vertex="1" parent="I8_YqKPrPAklGVPkxECB-31">
          <mxGeometry x="260" y="120" width="120" height="60" as="geometry" />
        </mxCell>
        <mxCell id="I8_YqKPrPAklGVPkxECB-47" style="edgeStyle=orthogonalEdgeStyle;rounded=0;orthogonalLoop=1;jettySize=auto;html=1;exitX=0.5;exitY=1;exitDx=0;exitDy=0;entryX=0.5;entryY=0;entryDx=0;entryDy=0;" edge="1" parent="I8_YqKPrPAklGVPkxECB-31" source="I8_YqKPrPAklGVPkxECB-43" target="I8_YqKPrPAklGVPkxECB-46">
          <mxGeometry relative="1" as="geometry" />
        </mxCell>
        <mxCell id="I8_YqKPrPAklGVPkxECB-48" value="Int j = 0 int jl = длина МНД" style="rounded=0;whiteSpace=wrap;html=1;container=0;" vertex="1" parent="I8_YqKPrPAklGVPkxECB-31">
          <mxGeometry x="260" y="190" width="120" height="60" as="geometry" />
        </mxCell>
        <mxCell id="I8_YqKPrPAklGVPkxECB-49" style="edgeStyle=orthogonalEdgeStyle;rounded=0;orthogonalLoop=1;jettySize=auto;html=1;exitX=0.5;exitY=1;exitDx=0;exitDy=0;entryX=0.5;entryY=0;entryDx=0;entryDy=0;" edge="1" parent="I8_YqKPrPAklGVPkxECB-31" source="I8_YqKPrPAklGVPkxECB-46" target="I8_YqKPrPAklGVPkxECB-48">
          <mxGeometry relative="1" as="geometry" />
        </mxCell>
        <mxCell id="I8_YqKPrPAklGVPkxECB-50" value="Взять i- тый Элемент МД" style="rounded=0;whiteSpace=wrap;html=1;container=0;" vertex="1" parent="I8_YqKPrPAklGVPkxECB-31">
          <mxGeometry x="260" y="260" width="120" height="60" as="geometry" />
        </mxCell>
        <mxCell id="I8_YqKPrPAklGVPkxECB-51" style="edgeStyle=orthogonalEdgeStyle;rounded=0;orthogonalLoop=1;jettySize=auto;html=1;exitX=0.5;exitY=1;exitDx=0;exitDy=0;entryX=0.5;entryY=0;entryDx=0;entryDy=0;" edge="1" parent="I8_YqKPrPAklGVPkxECB-31" source="I8_YqKPrPAklGVPkxECB-48" target="I8_YqKPrPAklGVPkxECB-50">
          <mxGeometry relative="1" as="geometry" />
        </mxCell>
        <mxCell id="I8_YqKPrPAklGVPkxECB-52" value="Взять j- тый Элемент МНД" style="rounded=0;whiteSpace=wrap;html=1;container=0;" vertex="1" parent="I8_YqKPrPAklGVPkxECB-31">
          <mxGeometry x="260" y="330" width="120" height="60" as="geometry" />
        </mxCell>
        <mxCell id="I8_YqKPrPAklGVPkxECB-53" style="edgeStyle=orthogonalEdgeStyle;rounded=0;orthogonalLoop=1;jettySize=auto;html=1;exitX=0.5;exitY=1;exitDx=0;exitDy=0;entryX=0.5;entryY=0;entryDx=0;entryDy=0;" edge="1" parent="I8_YqKPrPAklGVPkxECB-31" source="I8_YqKPrPAklGVPkxECB-50" target="I8_YqKPrPAklGVPkxECB-52">
          <mxGeometry relative="1" as="geometry" />
        </mxCell>
        <mxCell id="I8_YqKPrPAklGVPkxECB-54" value="i-тый id == j-тому id" style="shape=rhombus;perimeter=rhombusPerimeter;whiteSpace=wrap;html=1;align=center;container=0;" vertex="1" parent="I8_YqKPrPAklGVPkxECB-31">
          <mxGeometry x="260" y="400" width="120" height="60" as="geometry" />
        </mxCell>
        <mxCell id="I8_YqKPrPAklGVPkxECB-55" style="edgeStyle=orthogonalEdgeStyle;rounded=0;orthogonalLoop=1;jettySize=auto;html=1;exitX=0.5;exitY=1;exitDx=0;exitDy=0;entryX=0.5;entryY=0;entryDx=0;entryDy=0;" edge="1" parent="I8_YqKPrPAklGVPkxECB-31" source="I8_YqKPrPAklGVPkxECB-52" target="I8_YqKPrPAklGVPkxECB-54">
          <mxGeometry relative="1" as="geometry" />
        </mxCell>
        <mxCell id="I8_YqKPrPAklGVPkxECB-56" style="edgeStyle=orthogonalEdgeStyle;rounded=0;orthogonalLoop=1;jettySize=auto;html=1;exitX=0.25;exitY=1;exitDx=0;exitDy=0;entryX=0.75;entryY=1;entryDx=0;entryDy=0;" edge="1" parent="I8_YqKPrPAklGVPkxECB-31" source="I8_YqKPrPAklGVPkxECB-57" target="I8_YqKPrPAklGVPkxECB-40">
          <mxGeometry relative="1" as="geometry">
            <Array as="points">
              <mxPoint x="110" y="900" />
              <mxPoint x="540" y="900" />
            </Array>
          </mxGeometry>
        </mxCell>
        <mxCell id="I8_YqKPrPAklGVPkxECB-57" value="Добавить id i-того в конец массива наложенных&amp;nbsp; ДОТОВ&lt;br&gt;&amp;nbsp;" style="rounded=0;whiteSpace=wrap;html=1;container=0;" vertex="1" parent="I8_YqKPrPAklGVPkxECB-31">
          <mxGeometry x="80" y="500.00272727272704" width="120" height="60" as="geometry" />
        </mxCell>
        <mxCell id="I8_YqKPrPAklGVPkxECB-58" style="edgeStyle=orthogonalEdgeStyle;rounded=0;orthogonalLoop=1;jettySize=auto;html=1;exitX=0;exitY=0.5;exitDx=0;exitDy=0;" edge="1" parent="I8_YqKPrPAklGVPkxECB-31" source="I8_YqKPrPAklGVPkxECB-54">
          <mxGeometry relative="1" as="geometry">
            <mxPoint x="200" y="430" as="targetPoint" />
          </mxGeometry>
        </mxCell>
        <mxCell id="I8_YqKPrPAklGVPkxECB-59" value="Нет" style="edgeLabel;html=1;align=center;verticalAlign=middle;resizable=0;points=[];container=0;" vertex="1" connectable="0" parent="I8_YqKPrPAklGVPkxECB-58">
          <mxGeometry x="-0.2935" y="-2" relative="1" as="geometry">
            <mxPoint as="offset" />
          </mxGeometry>
        </mxCell>
        <mxCell id="I8_YqKPrPAklGVPkxECB-60" style="edgeStyle=orthogonalEdgeStyle;rounded=0;orthogonalLoop=1;jettySize=auto;html=1;exitX=1;exitY=0.5;exitDx=0;exitDy=0;entryX=0;entryY=0.5;entryDx=0;entryDy=0;" edge="1" parent="I8_YqKPrPAklGVPkxECB-31" source="I8_YqKPrPAklGVPkxECB-61" target="I8_YqKPrPAklGVPkxECB-52">
          <mxGeometry relative="1" as="geometry" />
        </mxCell>
        <mxCell id="I8_YqKPrPAklGVPkxECB-61" value="j++" style="rounded=0;whiteSpace=wrap;html=1;container=0;" vertex="1" parent="I8_YqKPrPAklGVPkxECB-31">
          <mxGeometry x="80" y="290" width="120" height="60" as="geometry" />
        </mxCell>
        <mxCell id="I8_YqKPrPAklGVPkxECB-62" style="edgeStyle=orthogonalEdgeStyle;rounded=0;orthogonalLoop=1;jettySize=auto;html=1;exitX=0.5;exitY=0;exitDx=0;exitDy=0;entryX=0.5;entryY=1;entryDx=0;entryDy=0;" edge="1" parent="I8_YqKPrPAklGVPkxECB-31" source="I8_YqKPrPAklGVPkxECB-66" target="I8_YqKPrPAklGVPkxECB-61">
          <mxGeometry relative="1" as="geometry" />
        </mxCell>
        <mxCell id="I8_YqKPrPAklGVPkxECB-63" value="Нет" style="edgeLabel;html=1;align=center;verticalAlign=middle;resizable=0;points=[];container=0;" vertex="1" connectable="0" parent="I8_YqKPrPAklGVPkxECB-62">
          <mxGeometry x="-0.2461" y="3" relative="1" as="geometry">
            <mxPoint as="offset" />
          </mxGeometry>
        </mxCell>
        <mxCell id="I8_YqKPrPAklGVPkxECB-64" style="edgeStyle=orthogonalEdgeStyle;rounded=0;orthogonalLoop=1;jettySize=auto;html=1;exitX=0.5;exitY=1;exitDx=0;exitDy=0;entryX=0.5;entryY=0;entryDx=0;entryDy=0;" edge="1" parent="I8_YqKPrPAklGVPkxECB-31" source="I8_YqKPrPAklGVPkxECB-66" target="I8_YqKPrPAklGVPkxECB-57">
          <mxGeometry relative="1" as="geometry" />
        </mxCell>
        <mxCell id="I8_YqKPrPAklGVPkxECB-65" value="Да" style="edgeLabel;html=1;align=center;verticalAlign=middle;resizable=0;points=[];container=0;" vertex="1" connectable="0" parent="I8_YqKPrPAklGVPkxECB-64">
          <mxGeometry x="-0.4616" y="1" relative="1" as="geometry">
            <mxPoint as="offset" />
          </mxGeometry>
        </mxCell>
        <mxCell id="I8_YqKPrPAklGVPkxECB-66" value="j == jl ?" style="shape=rhombus;perimeter=rhombusPerimeter;whiteSpace=wrap;html=1;align=center;container=0;" vertex="1" parent="I8_YqKPrPAklGVPkxECB-31">
          <mxGeometry x="80" y="400" width="120" height="60" as="geometry" />
        </mxCell>
        <mxCell id="I8_YqKPrPAklGVPkxECB-67" value="Произвести запрос Длительности из справочника предметов по id" style="rounded=0;whiteSpace=wrap;html=1;container=0;" vertex="1" parent="I8_YqKPrPAklGVPkxECB-31">
          <mxGeometry x="260.0007692307686" y="580" width="120" height="60" as="geometry" />
        </mxCell>
        <mxCell id="I8_YqKPrPAklGVPkxECB-68" style="edgeStyle=orthogonalEdgeStyle;rounded=0;orthogonalLoop=1;jettySize=auto;html=1;exitX=0.5;exitY=1;exitDx=0;exitDy=0;" edge="1" parent="I8_YqKPrPAklGVPkxECB-31" source="I8_YqKPrPAklGVPkxECB-33" target="I8_YqKPrPAklGVPkxECB-67">
          <mxGeometry relative="1" as="geometry">
            <mxPoint x="320.2307692307686" y="580" as="targetPoint" />
          </mxGeometry>
        </mxCell>
        <mxCell id="I8_YqKPrPAklGVPkxECB-69" style="edgeStyle=orthogonalEdgeStyle;rounded=0;orthogonalLoop=1;jettySize=auto;html=1;exitX=0.5;exitY=1;exitDx=0;exitDy=0;entryX=0;entryY=0.5;entryDx=0;entryDy=0;" edge="1" parent="I8_YqKPrPAklGVPkxECB-31" source="I8_YqKPrPAklGVPkxECB-57" target="I8_YqKPrPAklGVPkxECB-67">
          <mxGeometry relative="1" as="geometry" />
        </mxCell>
        <mxCell id="I8_YqKPrPAklGVPkxECB-70" style="edgeStyle=orthogonalEdgeStyle;rounded=0;orthogonalLoop=1;jettySize=auto;html=1;exitX=1;exitY=0.5;exitDx=0;exitDy=0;entryX=0.75;entryY=1;entryDx=0;entryDy=0;" edge="1" parent="I8_YqKPrPAklGVPkxECB-31" source="I8_YqKPrPAklGVPkxECB-71" target="I8_YqKPrPAklGVPkxECB-40">
          <mxGeometry relative="1" as="geometry" />
        </mxCell>
        <mxCell id="I8_YqKPrPAklGVPkxECB-71" value="Оставшееся время в МНД = длительность,&lt;br&gt;Время старта = null" style="rounded=0;whiteSpace=wrap;html=1;container=0;" vertex="1" parent="I8_YqKPrPAklGVPkxECB-31">
          <mxGeometry x="260" y="660" width="120" height="60" as="geometry" />
        </mxCell>
        <mxCell id="I8_YqKPrPAklGVPkxECB-72" style="edgeStyle=orthogonalEdgeStyle;rounded=0;orthogonalLoop=1;jettySize=auto;html=1;exitX=0.5;exitY=1;exitDx=0;exitDy=0;entryX=0.5;entryY=0;entryDx=0;entryDy=0;" edge="1" parent="I8_YqKPrPAklGVPkxECB-31" source="I8_YqKPrPAklGVPkxECB-67" target="I8_YqKPrPAklGVPkxECB-71">
          <mxGeometry relative="1" as="geometry" />
        </mxCell>
        <mxCell id="I8_YqKPrPAklGVPkxECB-73" value="i == длина МД?" style="shape=rhombus;perimeter=rhombusPerimeter;whiteSpace=wrap;html=1;align=center;container=0;" vertex="1" parent="I8_YqKPrPAklGVPkxECB-31">
          <mxGeometry x="260" y="740" width="120" height="60" as="geometry" />
        </mxCell>
        <mxCell id="I8_YqKPrPAklGVPkxECB-74" style="edgeStyle=orthogonalEdgeStyle;rounded=0;orthogonalLoop=1;jettySize=auto;html=1;exitX=0.5;exitY=1;exitDx=0;exitDy=0;entryX=0.5;entryY=0;entryDx=0;entryDy=0;" edge="1" parent="I8_YqKPrPAklGVPkxECB-31" source="I8_YqKPrPAklGVPkxECB-71" target="I8_YqKPrPAklGVPkxECB-73">
          <mxGeometry relative="1" as="geometry" />
        </mxCell>
        <mxCell id="I8_YqKPrPAklGVPkxECB-75" value="break" style="rounded=0;whiteSpace=wrap;html=1;container=0;" vertex="1" parent="I8_YqKPrPAklGVPkxECB-31">
          <mxGeometry x="260" y="820" width="120" height="60" as="geometry" />
        </mxCell>
        <mxCell id="I8_YqKPrPAklGVPkxECB-76" style="edgeStyle=orthogonalEdgeStyle;rounded=0;orthogonalLoop=1;jettySize=auto;html=1;exitX=0.5;exitY=1;exitDx=0;exitDy=0;" edge="1" parent="I8_YqKPrPAklGVPkxECB-31" source="I8_YqKPrPAklGVPkxECB-73" target="I8_YqKPrPAklGVPkxECB-75">
          <mxGeometry relative="1" as="geometry">
            <mxPoint x="320" y="830" as="targetPoint" />
          </mxGeometry>
        </mxCell>
        <mxCell id="I8_YqKPrPAklGVPkxECB-77" style="edgeStyle=orthogonalEdgeStyle;rounded=0;orthogonalLoop=1;jettySize=auto;html=1;exitX=0.5;exitY=0;exitDx=0;exitDy=0;entryX=1;entryY=0.5;entryDx=0;entryDy=0;" edge="1" parent="I8_YqKPrPAklGVPkxECB-31" source="I8_YqKPrPAklGVPkxECB-78" target="I8_YqKPrPAklGVPkxECB-50">
          <mxGeometry relative="1" as="geometry" />
        </mxCell>
        <mxCell id="I8_YqKPrPAklGVPkxECB-78" value="i++" style="rounded=0;whiteSpace=wrap;html=1;container=0;" vertex="1" parent="I8_YqKPrPAklGVPkxECB-31">
          <mxGeometry x="390" y="580" width="120" height="60" as="geometry" />
        </mxCell>
        <mxCell id="I8_YqKPrPAklGVPkxECB-79" style="edgeStyle=orthogonalEdgeStyle;rounded=0;orthogonalLoop=1;jettySize=auto;html=1;exitX=1;exitY=0.5;exitDx=0;exitDy=0;entryX=0.5;entryY=1;entryDx=0;entryDy=0;" edge="1" parent="I8_YqKPrPAklGVPkxECB-31" source="I8_YqKPrPAklGVPkxECB-73" target="I8_YqKPrPAklGVPkxECB-78">
          <mxGeometry relative="1" as="geometry">
            <mxPoint x="430" y="600" as="targetPoint" />
          </mxGeometry>
        </mxCell>
        <mxCell id="I8_YqKPrPAklGVPkxECB-80" value="Нет" style="edgeLabel;html=1;align=center;verticalAlign=middle;resizable=0;points=[];container=0;" vertex="1" connectable="0" parent="I8_YqKPrPAklGVPkxECB-79">
          <mxGeometry x="-0.9312" relative="1" as="geometry">
            <mxPoint as="offset" />
          </mxGeometry>
        </mxCell>
      </root>
    </mxGraphModel>
  </diagram>
</mxfile>
